<svg id="Group_724" data-name="Group 724" xmlns="http://www.w3.org/2000/svg" xmlns:xlink="http://www.w3.org/1999/xlink" width="58.168" height="58.215" viewBox="0 0 58.168 58.215">
  <defs>
    <clipPath id="clip-path">
      <rect id="Rectangle_2049" data-name="Rectangle 2049" width="58.168" height="58.215" fill="#011aae"/>
    </clipPath>
  </defs>
  <g id="Group_723" data-name="Group 723" clip-path="url(#clip-path)">
    <path id="Path_1201" data-name="Path 1201" d="M0,31.383V26.835a2.169,2.169,0,0,0,.113-.34c.224-1.381.393-2.773.675-4.141a25.531,25.531,0,0,1,1.8-5.274,24.721,24.721,0,0,1,3.169-5.344,56.848,56.848,0,0,1,3.9-4.252,17.7,17.7,0,0,1,2.267-1.9A28.66,28.66,0,0,1,24.856.337c.663-.089,1.32-.224,1.98-.337h4.321c.057.035.11.094.171.1,1.153.16,2.32.25,3.457.483a29.411,29.411,0,0,1,7.2,2.451,30.349,30.349,0,0,1,6.825,4.679,27.658,27.658,0,0,1,4.385,5.1,26.519,26.519,0,0,1,3.843,8.261,49.144,49.144,0,0,1,1.045,5.589,16.808,16.808,0,0,1,.012,3.292,41.445,41.445,0,0,1-.471,4.829,26.721,26.721,0,0,1-2.546,7.408,31.183,31.183,0,0,1-4.211,6.179,28.029,28.029,0,0,1-5.446,4.8,28.135,28.135,0,0,1-8.11,3.853,28.743,28.743,0,0,1-7.139,1.177c-1.221.034-2.447-.035-3.668-.115a17.137,17.137,0,0,1-2.977-.354c-1.66-.41-3.3-.906-4.921-1.465a24.084,24.084,0,0,1-5.665-2.933,25.771,25.771,0,0,1-5.38-4.687c-.668-.8-1.349-1.591-1.978-2.422a26.742,26.742,0,0,1-3.552-6.395,26.4,26.4,0,0,1-1.8-7c-.05-.486-.153-.967-.231-1.45M30.527,52.914A23.651,23.651,0,0,0,47.208,44.47a23.015,23.015,0,0,0,5.541-17.819,22.871,22.871,0,0,0-6.938-14.417A23.139,23.139,0,0,0,27.822,5.367a22.805,22.805,0,0,0-16.728,8.188A23,23,0,0,0,5.36,31.237,23.135,23.135,0,0,0,13.6,47.168a23.117,23.117,0,0,0,16.926,5.746" transform="translate(-0.001)" fill="#011aae"/>
    <path id="Path_1202" data-name="Path 1202" d="M89.251,57.375q-.007,7.16-.013,14.32a2.768,2.768,0,0,1-1.4,2.573,2.54,2.54,0,0,1-3.851-1.978q-.026-7.018-.027-14.036c0-.318,0-.636,0-1.108-.229.21-.373.333-.506.466-1.729,1.726-3.446,3.465-5.191,5.176a2.432,2.432,0,0,1-2.879.565,2.686,2.686,0,0,1-1.535-2.388,2.585,2.585,0,0,1,.788-1.943c3.315-3.3,6.656-6.578,9.906-9.943a2.973,2.973,0,0,1,4.081.006c3.258,3.278,6.538,6.535,9.8,9.813a2.7,2.7,0,0,1-1.68,4.7,2.292,2.292,0,0,1-1.845-.724c-1.722-1.707-3.431-3.426-5.147-5.139-.132-.131-.278-.248-.418-.371l-.082-.073v.087" transform="translate(-57.491 -37.578)" fill="#011aae"/>
    <path id="Path_1203" data-name="Path 1203" d="M103.153,196.372c-1.741,0-3.484.026-5.224-.01a2.463,2.463,0,0,1-2.3-1.547,2.515,2.515,0,0,1,.235-2.613,2.733,2.733,0,0,1,2.44-1.134c3.332-.015,6.663-.026,9.995,0a2.606,2.606,0,0,1,2.809,1.868,2.515,2.515,0,0,1-2.025,3.318,6.932,6.932,0,0,1-1.046.105c-1.628.011-3.256,0-4.884,0v0" transform="translate(-74.241 -148.729)" fill="#011aae"/>
    <path id="Path_1204" data-name="Path 1204" d="M143.363,89.058v-.087l.082.073-.037.029-.044-.015" transform="translate(-111.603 -69.261)" fill="#011aae"/>
  </g>
</svg>
