<svg id="Group_480" data-name="Group 480" xmlns="http://www.w3.org/2000/svg" xmlns:xlink="http://www.w3.org/1999/xlink" width="76.123" height="97.03" viewBox="0 0 76.123 97.03">
  <defs>
    <clipPath id="clip-path">
      <rect id="Rectangle_1820" data-name="Rectangle 1820" width="76.123" height="97.029" fill="#021aae"/>
    </clipPath>
  </defs>
  <g id="Group_479" data-name="Group 479" clip-path="url(#clip-path)">
    <path id="Path_1142" data-name="Path 1142" d="M98.889,127.554a27.69,27.69,0,0,1-2.765-55.217c9.015-.822,16.848,1.844,23.207,8.492a26.6,26.6,0,0,1,7.574,17.821,27.711,27.711,0,0,1-28.017,28.9m.34-48.531c-8.366.425-14.817,3.96-18.5,11.494-4.228,8.646-2.8,16.8,3.609,23.81a19.271,19.271,0,0,0,14.892,6.307Z" transform="translate(-50.806 -51.344)" fill="#021aae"/>
    <path id="Path_1143" data-name="Path 1143" d="M53.843,249.553a3.006,3.006,0,0,1,3.291,1.979,3.359,3.359,0,0,1-.714,3.819c-1.611,1.648-3.2,3.323-4.9,4.877a3.377,3.377,0,0,1-4.986-.016,3.637,3.637,0,0,1,.392-5.155c1.591-1.4,3.042-2.965,4.514-4.5a2.483,2.483,0,0,1,2.4-1.006" transform="translate(-32.46 -177.445)" fill="#021aae"/>
    <path id="Path_1144" data-name="Path 1144" d="M155.811,6.818c0-1.224-.01-2.449,0-3.673a3.39,3.39,0,0,1,3-3.144c1.772-.048,3.487.789,3.626,2.479a68.2,68.2,0,0,1,.023,8.837c-.066,1.372-1.92,2.761-3.834,2.523a3.71,3.71,0,0,1-2.831-3.133c.055-1.294.012-2.592.012-3.888" transform="translate(-110.806 0.001)" fill="#021aae"/>
    <path id="Path_1145" data-name="Path 1145" d="M6.76,162.774c-1.15,0-2.3,0-3.45,0a3.6,3.6,0,0,1-3.286-3,3.48,3.48,0,0,1,3.13-3.91c2.371-.048,4.745-.076,7.114.006a3.392,3.392,0,0,1,3.226,2.072,2.9,2.9,0,0,1-.509,3.473,5.1,5.1,0,0,1-2.462,1.3,21.328,21.328,0,0,1-3.763.054" transform="translate(0 -110.82)" fill="#021aae"/>
    <path id="Path_1146" data-name="Path 1146" d="M155.743,294.9c0-1.224-.008-2.449,0-3.673A3.39,3.39,0,0,1,158.772,288c1.7-.044,3.5.811,3.62,2.61a66.8,66.8,0,0,1,0,8.515c-.11,1.771-1.969,2.916-3.853,2.71-1.207-.132-2.989-1.869-2.826-3.371a34.053,34.053,0,0,0,.028-3.562" transform="translate(-110.739 -204.827)" fill="#021aae"/>
    <path id="Path_1147" data-name="Path 1147" d="M53.537,57.555a9.686,9.686,0,0,1-1.982-1.149c-1.81-1.716-3.566-3.494-5.285-5.3a3.425,3.425,0,0,1,5.222-4.428c1.632,1.46,3.134,3.067,4.662,4.641a3.527,3.527,0,0,1,.855,3.966,3.585,3.585,0,0,1-3.319,2.006l-.153.266" transform="translate(-32.376 -32.403)" fill="#021aae"/>
  </g>
</svg>
