<svg id="Group_466" data-name="Group 466" xmlns="http://www.w3.org/2000/svg" xmlns:xlink="http://www.w3.org/1999/xlink" width="17.221" height="22.607" viewBox="0 0 17.221 22.607">
  <defs>
    <clipPath id="clip-path">
      <rect id="Rectangle_1806" data-name="Rectangle 1806" width="17.221" height="22.607" fill="#021aae"/>
    </clipPath>
  </defs>
  <g id="Group_465" data-name="Group 465" clip-path="url(#clip-path)">
    <path id="Path_1132" data-name="Path 1132" d="M1.987,0h8.346c0,1.729,0,3.458,0,5.187a1.552,1.552,0,0,0,1.444,1.435q2.616,0,5.232,0h.206c0,.044.008.059.008.073q0,6.7,0,13.4a2.494,2.494,0,0,1-.977,2.014A2.3,2.3,0,0,1,14.9,22.6q-6.3.009-12.6,0a1.693,1.693,0,0,1-.28-.024,2.365,2.365,0,0,1-1.481-.869,2.059,2.059,0,0,1-.533-1.284Q-.007,11.388,0,2.349A1.743,1.743,0,0,1,.048,1.9,2.336,2.336,0,0,1,1.565.171c.143-.05.282-.114.422-.171m6.47,10.156H13.31A.7.7,0,0,0,14,9.533a.631.631,0,0,0-.535-.654,3.539,3.539,0,0,0-.648-.045q-4.588,0-9.177,0a.662.662,0,1,0-.01,1.324H8.457m-.013,3.533q2.427,0,4.853,0a.612.612,0,0,0,.229-.037.657.657,0,0,0-.26-1.283q-4.831-.009-9.662,0a.662.662,0,0,0,.009,1.325H8.444m-3.26,3.533c.544,0,1.089,0,1.633,0a.62.62,0,0,0,.557-.31.649.649,0,0,0-.6-1.006c-1.073-.025-2.148-.012-3.221,0a.637.637,0,0,0-.6.744.65.65,0,0,0,.639.575H5.184" transform="translate(0)" fill="#021aae"/>
    <path id="Path_1133" data-name="Path 1133" d="M197.656,4.931c.214.167.437.322.636.5.347.315.679.646,1.018.97.683.653,1.364,1.308,2.05,1.958.323.306.666.591.981.9.2.195.359.423.567.673-1.735,0-3.4,0-5.073,0-.142,0-.221-.052-.221-.2q0-2.373,0-4.745c0-.011.013-.021.039-.06" transform="translate(-185.956 -4.64)" fill="#021aae"/>
  </g>
</svg>
