<svg id="Group_599" data-name="Group 599" xmlns="http://www.w3.org/2000/svg" xmlns:xlink="http://www.w3.org/1999/xlink" width="138.174" height="138.326" viewBox="0 0 138.174 138.326">
  <defs>
    <clipPath id="clip-path">
      <rect id="Rectangle_1921" data-name="Rectangle 1921" width="138.174" height="138.326" fill="#fff"/>
    </clipPath>
  </defs>
  <g id="Group_598" data-name="Group 598" clip-path="url(#clip-path)">
    <path id="Path_1175" data-name="Path 1175" d="M219.436,228.63c2.628,0,5.1-.009,7.572,0,2.678.012,3.935,1.75,3.1,4.254q-5.311,15.848-10.621,31.7c-.7,2.085-1.6,2.8-3.786,2.794q-32.352-.071-64.7-.03c-1,0-2.106.2-2.729-.89a4.065,4.065,0,0,1-.682-1.7c-.082-2.29-.044-4.585-.044-6.878q0-23.655,0-47.311c0-.608-.009-1.218.04-1.823a2.129,2.129,0,0,1,1.838-2.078,8.554,8.554,0,0,1,1.669-.136q10.176-.013,20.352,0c4.564.008,7.549,2.022,8.8,5.98.282.9.31,1.87.5,2.8a2.564,2.564,0,0,0,2.9,2.285l32,0c2.73,0,3.795,1.077,3.8,3.85,0,2.334,0,4.669,0,7.186m-66.394,17.844q-.037.332-.074.664l.2.019q.053-.24.107-.479,2.519-7.573,5.038-15.145c.87-2.612,1.281-2.9,4.083-2.9h51.384v-5.511c-10.231,0-20.381,0-30.53,0a5.1,5.1,0,0,1-1.24.039c-4.2-1.117-6.8-4.061-6.9-8.323a2.482,2.482,0,0,0-2.216-2.543c-2.4-.2-4.822-.241-7.235-.263-4.153-.038-8.307-.011-12.612-.011Zm70.76-12.19a4.276,4.276,0,0,0-.571-.1q-29.539-.006-59.079.03a1.489,1.489,0,0,0-1.1.809q-4.361,12.778-8.618,25.592a5.278,5.278,0,0,0-.127,1.129,3.213,3.213,0,0,0,.421.079q29.47.007,58.938.034c.853,0,1.113-.388,1.327-1.042q1.325-4.059,2.668-8.111c2.028-6.091,4.064-12.18,6.145-18.418" transform="translate(-92.186 -129.051)" fill="#fff"/>
    <path id="Path_1176" data-name="Path 1176" d="M71.937,22.164c2.662,0,5.179-.014,7.7,0,2.6.018,3.813,1.651,3,4.07q-5.464,16.354-10.95,32.7a2.614,2.614,0,0,1-2.4,1.9c-.418.041-.841.029-1.262.029L3.6,60.837c-.327,0-.656.01-.982-.012C.84,60.7.058,59.905.05,58.108.029,53.615.037,49.123.037,44.63.036,30.965.075,17.3,0,3.637-.013,1.3,1.015-.045,3.682,0c6.969.123,13.942-.015,20.912.066,3.313.039,6.054,1.379,7.573,4.481a11.761,11.761,0,0,1,1,3.645c.255,2.006,1.045,2.852,3.12,2.857,5.334.012,10.667,0,16,0s10.667,0,16,0c2.508,0,3.626,1.1,3.643,3.6.016,2.431,0,4.862,0,7.51M5.584,39.973l-.16.677.237.066.261-.8A3.281,3.281,0,0,1,6,39.231c1.572-4.641,3.168-9.273,4.728-13.918.951-2.831,1.347-3.149,4.313-3.149H66.289V16.629H65.43c-9.969,0-19.939.026-29.908-.011a8.255,8.255,0,0,1-7.914-7.624C27.42,6.448,26.616,5.57,24,5.565q-8.706-.017-17.411,0c-.311,0-.622.05-1,.082ZM67.07,55.341,76.29,27.665H23.907c-2.387,0-4.774.013-7.16-.008a1.146,1.146,0,0,0-1.353.97c-1.576,4.983-3.267,9.93-4.925,14.886-1.31,3.92-2.628,7.838-3.965,11.827Z" transform="translate(0 0)" fill="#fff"/>
    <path id="Path_1177" data-name="Path 1177" d="M269.082,46.464H245.369c.411.49.666.843.969,1.149,1.746,1.761,3.512,3.5,5.252,5.268a2.421,2.421,0,0,1,.007,3.737c-1.049.946-2.292,1.585-3.711.154-3.757-3.786-7.544-7.541-11.3-11.331a2.6,2.6,0,0,1,.016-3.59q5.158-5.292,10.326-10.573a3.544,3.544,0,0,1,2.91-1.259,2.528,2.528,0,0,1,2.328,1.424,2.439,2.439,0,0,1-.536,2.992c-1.766,1.741-3.512,3.5-5.257,5.262-.309.312-.576.665-1.05,1.219h1.944q11.86,0,23.721,0c2.478,0,3.645,1.126,3.647,3.617q.019,26.814-.032,53.629a5.149,5.149,0,0,1-.906,2.621,2.3,2.3,0,0,1-2.971.73,2.545,2.545,0,0,1-1.661-2.593q.03-25.411.012-50.821V46.464" transform="translate(-147.396 -18.753)" fill="#fff"/>
    <path id="Path_1178" data-name="Path 1178" d="M53.7,227.2q-14.459,0-28.918,0a2.642,2.642,0,0,1-2.682-2.6q-.014-22.045.011-44.09c0-2.1.836-2.879,2.842-2.86,1.724.016,2.685,1.092,2.686,3.089q.011,19.659,0,39.316v1.6H53.714l.216.015-.171-.206c-1.927-1.966-3.879-3.908-5.762-5.914a3.579,3.579,0,0,1-.929-1.748c-.179-1.114-.09-2.279,1.223-2.768a3.109,3.109,0,0,1,3.48.445c3.665,3.614,7.31,7.249,10.894,10.942,1.352,1.394,1.2,2.861-.184,4.246-3.478,3.473-6.94,6.961-10.448,10.4-.838.823-1.763,1.643-3.142,1.07a2.763,2.763,0,0,1-1-4.756c1.945-2.013,3.911-4,5.868-6.005l.158-.209-.214.033" transform="translate(-13.807 -111.01)" fill="#fff"/>
    <path id="Path_1179" data-name="Path 1179" d="M106.357,294.457l.171.206-.216-.015-.042-.111Z" transform="translate(-66.406 -183.999)" fill="#fff"/>
    <path id="Path_1180" data-name="Path 1180" d="M106.288,309.693l.214-.033-.158.209-.095-.067Z" transform="translate(-66.392 -193.499)" fill="#fff"/>
    <path id="Path_1181" data-name="Path 1181" d="M162.1,313.026l.231.2-.107.479-.2-.019q.037-.332.074-.664" transform="translate(-101.249 -195.603)" fill="#fff"/>
    <path id="Path_1182" data-name="Path 1182" d="M14.619,106.467l.338-.054-.261.8-.237-.066.16-.677" transform="translate(-9.035 -66.495)" fill="#fff"/>
  </g>
</svg>
