<svg id="Group_478" data-name="Group 478" xmlns="http://www.w3.org/2000/svg" xmlns:xlink="http://www.w3.org/1999/xlink" width="66.524" height="87.164" viewBox="0 0 66.524 87.164">
  <defs>
    <clipPath id="clip-path">
      <rect id="Rectangle_1819" data-name="Rectangle 1819" width="66.524" height="87.164" fill="#021aae"/>
    </clipPath>
  </defs>
  <g id="Group_477" data-name="Group 477" clip-path="url(#clip-path)">
    <path id="Path_1141" data-name="Path 1141" d="M64.627,35.716A4.164,4.164,0,0,1,63.181,32.7c-.184-1.3-.434-2.595-.675-3.847-.186-.966-.379-1.965-.536-2.942a4.858,4.858,0,0,0-2.088-3.363,8.131,8.131,0,0,1-1.49-1.208,8.221,8.221,0,0,1,.43-1.937l.013-.045a7.643,7.643,0,0,0-2.505-7.543,2.486,2.486,0,0,0,.307-1.632,2.855,2.855,0,0,0-1.7-2.079c-.383-.186-.762-.336-1.128-.481-.2-.079-.4-.157-.595-.241a8.43,8.43,0,0,0-.8-.281l-.235-.075.008-.012a5.222,5.222,0,0,0,.514-.872,2.689,2.689,0,0,0-1.28-3.711c-.385-.205-.767-.363-1.135-.516-.136-.056-.271-.112-.406-.171a4.1,4.1,0,0,0-2.84-.527c-.969.3-1.472,1.167-2,2.081a3.342,3.342,0,0,1-1.163,1.21,84.516,84.516,0,0,0-7.032,4.9,1.993,1.993,0,0,1-.877.158,2.364,2.364,0,0,0,.262-.556,1.847,1.847,0,0,0,.126-.235,2.67,2.67,0,0,0-.34-2.884A2.476,2.476,0,0,0,32.9,5.158c-.292.159-.577.118-1.259-.031-.257-.056-.547-.119-.855-.159-1.544-.2-1.8-.7-1.779-1.738A2.685,2.685,0,0,0,26.416.461L25.439.38C23.761.242,22.026.1,20.307,0a2.771,2.771,0,0,0-2.555,1.161,2.861,2.861,0,0,0-.063,2.891,16.717,16.717,0,0,0,.885,1.649,2.963,2.963,0,0,0-1.511,1.661,3.334,3.334,0,0,0,.538,2.6c.1.185.2.372.3.559.2.378.411.765.653,1.148a6.927,6.927,0,0,0-2.891,2.371,2.9,2.9,0,0,0-2.7-.875c-1.042.2-2.15.387-3.387.57a2.9,2.9,0,0,0-2.453,2.114,9.393,9.393,0,0,0-.442,4.759c.186.919.284,1.861.388,2.859.045.429.089.857.141,1.285-1.4.8-2.32,1.376-2.517,2.464-.205,1.136.533,2.023,1.649,3.366l.147.174.212.257-.156.182-.1.122c-1.266,1.473-2.069,2.092-3.483,1.863A2.452,2.452,0,0,0,.7,33.935a2.848,2.848,0,0,0-.534,2.677c.274,1,.6,2.015.991,3.1.211.584.1.773.029.885a7.5,7.5,0,0,0,.11,8.269,6.673,6.673,0,0,1,.45,6.221,3.435,3.435,0,0,0,1.607,4.622,4.908,4.908,0,0,0,1.87,6.015,2.455,2.455,0,0,1,.43.478,4.153,4.153,0,0,0,2.9,1.63c1.187.178,2.4.383,3.568.581q.766.13,1.531.257a4.668,4.668,0,0,0-1.268,2.247c-.142.746-.319,1.513-.491,2.255a23.234,23.234,0,0,0-.862,6.7v.528c0,.408,0,.816,0,1.224a3.606,3.606,0,0,0,.737,2.724,3.516,3.516,0,0,0,2.662.758c.418,0,.838-.006,1.257-.012.9-.014,1.755-.028,2.6.031A3.6,3.6,0,0,0,22,83.283q.759.253,1.52.5A60.766,60.766,0,0,1,30.8,86.509a5.348,5.348,0,0,0,2.2.654c.972,0,1.691-.593,2.591-1.889a1.916,1.916,0,0,1,.269-.325,1.42,1.42,0,0,1,.224.114,6.916,6.916,0,0,0,6.789.113l.509-.23a21.7,21.7,0,0,1,7.138-2.3l.08-.006a3.454,3.454,0,0,1,.932-.008.642.642,0,0,1,.123.216,2.586,2.586,0,0,0,3.016,1.536,3.349,3.349,0,0,0,2.349-2.2,3.252,3.252,0,0,0-.253-3.115l-.22-.3c-.686-.93-1.394-1.888-2.181-2.79a6.458,6.458,0,0,0,3.783-4.467,2.922,2.922,0,0,0,1.812-1.553,3.2,3.2,0,0,0-.444-2.747,22.371,22.371,0,0,0-4.991-5.747c-2.782-2.42-5.568-5.147-7.272-8.723.588-.036,1.17-.083,1.74-.128.554-.044,1.127-.09,1.685-.124a3.906,3.906,0,0,0,2.794-1.331A35.04,35.04,0,0,1,60.412,45.3a4.411,4.411,0,0,1,.455-.271,1.854,1.854,0,0,1,.169.158,2.7,2.7,0,0,0,2.7.861,2.967,2.967,0,0,0,1.983-2.329c.092-.406.155-.8.216-1.189a9.782,9.782,0,0,1,.3-1.454,4.551,4.551,0,0,0-1.605-5.362m-5.529,5.9a38.152,38.152,0,0,0-8.268,6.815.779.779,0,0,1-.685.294c-1.644.058-3.248.19-4.461.3a2.908,2.908,0,0,0-2.4,1.294,3.042,3.042,0,0,0-.017,2.835c2.128,5.156,5.894,8.793,9.648,11.955a15.569,15.569,0,0,1,2.771,3.217,2.71,2.71,0,0,0-1.216,2.052c-.1.968-.608,1.579-1.815,2.181a9.716,9.716,0,0,0-1.219.761,2.988,2.988,0,0,0-1.374,1.962,2.92,2.92,0,0,0,.68,2.243q.48.633.957,1.249a9.6,9.6,0,0,0-1.209.04,25.709,25.709,0,0,0-7.865,2.313c-.761.318-1.549.646-2.321.937-.827.311-1.031.247-1.269.1a3.181,3.181,0,0,0-.735-.31c-.047-.015-.093-.029-.138-.045-.371-.134-.685-.264-.962-.379-2.121-.881-3-.592-4.705,1.672a68.346,68.346,0,0,0-8.957-3.322l-.644-.205a4.453,4.453,0,0,0-1.35-.23,2.944,2.944,0,0,0-2.715,1.832.577.577,0,0,1-.084.139.844.844,0,0,1-.342.026,34.17,34.17,0,0,0-3.556-.019c.026-.4.016-.771,0-1.137,0-.174-.01-.347-.01-.52l0-.087a18.52,18.52,0,0,1,.736-5.414c.18-.766.367-1.559.515-2.359a2.649,2.649,0,0,1,.694-.972,9.686,9.686,0,0,0,.647-.756c.331-.442,1.338-1.788.792-3.173a3.366,3.366,0,0,0-2.695-1.764q-.629-.114-1.258-.232c-1.538-.287-3.129-.584-4.733-.752-.49-.051-.783-.305-1.347-.828-.131-.122-.264-.245-.4-.366C6.717,62.03,6.7,61.428,7.062,60.58A3.041,3.041,0,0,0,5.4,56.522c-.05-.025-.088-.047-.118-.066.01-.033.024-.073.045-.124a10.1,10.1,0,0,0-.785-9.481,3.83,3.83,0,0,1-.027-4.386,4.842,4.842,0,0,0,.068-4.486c-.072-.2-.144-.406-.208-.61l-.008-.026c-.044-.141-.089-.287-.132-.427l.446-.005A3.7,3.7,0,0,0,7.563,35.64c.542-.607,1.11-1.181,1.712-1.789q.338-.341.674-.685a2.781,2.781,0,0,0,.146-4.023c-.183-.215-.36-.434-.537-.654-.128-.158-.257-.319-.39-.479a3.057,3.057,0,0,0,1.861-3.583c-.153-.98-.276-1.994-.394-2.976-.045-.373-.09-.747-.137-1.119-.016-.13-.034-.259-.051-.389-.051-.376-.1-.731-.112-1.065-.048-1.216.094-1.4,1.263-1.6.125-.022.252-.038.38-.054a5.86,5.86,0,0,0,1.147-.232l.05-.015a1.722,1.722,0,0,1,.225.231,3.435,3.435,0,0,0,2.815,1.468,3.291,3.291,0,0,0,2.331-1.989,4.849,4.849,0,0,1,2.153-1.85l.225-.131c2.013-1.18,2.353-2.432,1.215-4.464l-.122-.218c-.263-.47-.532-.951-.816-1.43A3.086,3.086,0,0,0,22.66,6.948a3.746,3.746,0,0,0-.671-3H22c.536.035,1.088.083,1.621.128.548.047,1.112.095,1.678.132.115,1.881,1.086,3.977,4.675,4.437a6.547,6.547,0,0,1,.809.182,9.189,9.189,0,0,0,1.07.237,2.782,2.782,0,0,0-.081,2.16,2.716,2.716,0,0,0,1.691,1.513c.676.233,1.354.4,2.01.57.2.049.392.1.587.15a2.97,2.97,0,0,0,2.641-.675c2.669-2.11,5.508-3.979,7.933-5.53a5.05,5.05,0,0,0,1.691-2.043l.006-.01c.153.064.3.128.436.187-.093.213-.213.471-.327.713A3.156,3.156,0,0,0,48.2,8.518a3.006,3.006,0,0,0,1.761,1.644c.721.315,1.452.614,2.172.9a2.407,2.407,0,0,0-.212,1.284,2.9,2.9,0,0,0,1.527,2.119,3.684,3.684,0,0,1,1.622,4.218c-.09.318-.174.6-.249.861-.829,2.836-.788,3.476,1.578,5.156.283.2.611.434.991.716a2.059,2.059,0,0,1,.9,1.512c.2,1.228.435,2.462.662,3.655.263,1.38.535,2.806.748,4.205a5.6,5.6,0,0,0,2.2,3.49,1.644,1.644,0,0,1,.618,2.085,3.672,3.672,0,0,0-.157.712c-.011.076-.026.179-.036.214l-.019.062a2.96,2.96,0,0,0-3.207.266" transform="translate(0 0.001)" fill="#021aae"/>
  </g>
</svg>
