<svg id="Group_711" data-name="Group 711" xmlns="http://www.w3.org/2000/svg" xmlns:xlink="http://www.w3.org/1999/xlink" width="66.765" height="66.76" viewBox="0 0 66.765 66.76">
  <defs>
    <clipPath id="clip-path">
      <rect id="Rectangle_2023" data-name="Rectangle 2023" width="66.764" height="66.76" fill="none"/>
    </clipPath>
  </defs>
  <g id="Group_710" data-name="Group 710" clip-path="url(#clip-path)">
    <path id="Path_1198" data-name="Path 1198" d="M31.294,0h4.172c1.116.144,2.239.245,3.347.439A32.678,32.678,0,0,1,58.726,11.727a32.348,32.348,0,0,1,7.578,27A32.209,32.209,0,0,1,53.471,59.988a32.426,32.426,0,0,1-24.532,6.467,32.221,32.221,0,0,1-17.609-8.06A32.868,32.868,0,0,1,.52,39.2C.3,37.963.171,36.71,0,35.466V31.294c.146-1.115.255-2.237.444-3.345A32.846,32.846,0,0,1,9.616,9.984,32.713,32.713,0,0,1,27.631.513C28.844.3,30.072.169,31.294,0m2.05,48.548q8.505,0,17.011,0a4.2,4.2,0,0,0,4.537-4.557q0-10.591,0-21.182a4.206,4.206,0,0,0-4.563-4.6q-16.945,0-33.891,0a4.21,4.21,0,0,0-4.57,4.589c0,7.017.055,14.035-.029,21.051a4.481,4.481,0,0,0,4.755,4.725c5.581-.1,11.166-.028,16.749-.028" fill="#fff"/>
    <path id="Path_1199" data-name="Path 1199" d="M124.085,134.423v.826q0,9.777,0,19.555c0,1.18-.135,1.314-1.309,1.314h-33.5c-1.163,0-1.3-.136-1.3-1.324q0-9.777,0-19.555v-.8c.287.214.468.343.642.481q8.012,6.361,16.023,12.724a1.842,1.842,0,0,0,2.783,0q7.886-6.258,15.77-12.519c.25-.2.5-.394.893-.7" transform="translate(-72.65 -111.007)" fill="#fff"/>
    <path id="Path_1200" data-name="Path 1200" d="M107.656,124.455h29.233c-.208.192-.335.325-.477.438q-6.787,5.39-13.569,10.787c-.4.323-.649.379-1.089.026q-6.789-5.44-13.616-10.833c-.132-.1-.255-.221-.482-.418" transform="translate(-88.903 -102.776)" fill="#fff"/>
  </g>
</svg>
