<svg id="Group_462" data-name="Group 462" xmlns="http://www.w3.org/2000/svg" xmlns:xlink="http://www.w3.org/1999/xlink" width="25.367" height="23.263" viewBox="0 0 25.367 23.263">
  <defs>
    <clipPath id="clip-path">
      <rect id="Rectangle_1804" data-name="Rectangle 1804" width="25.367" height="23.263" fill="#011aae"/>
    </clipPath>
  </defs>
  <g id="Group_461" data-name="Group 461" clip-path="url(#clip-path)">
    <path id="Path_1129" data-name="Path 1129" d="M0,17.331V1.722A6.7,6.7,0,0,1,.5.763,2.083,2.083,0,0,1,2.307,0q9.154,0,18.308,0c.939,0,1.879.017,2.818.037a1.95,1.95,0,0,1,1.343.626,2.152,2.152,0,0,1,.592,1.588q-.015,7.451-.047,14.9a1.688,1.688,0,0,1-.468,1.111,2.234,2.234,0,0,1-1.806.768c-2.3-.016-4.608-.006-6.912-.006h-.3c.026.3.041.566.074.832a4.519,4.519,0,0,0,.451,1.611,1.312,1.312,0,0,0,1.094.766.459.459,0,0,1,.484.537.519.519,0,0,1-.529.488q-4.744,0-9.488,0a.5.5,0,0,1-.532-.478.457.457,0,0,1,.425-.537,1.431,1.431,0,0,0,1.3-1.042,8.344,8.344,0,0,0,.3-1.232c.057-.3.064-.617.1-.941h-.27c-1.453,0-2.907,0-4.36,0-1.017,0-2.035.009-3.051-.025A1.777,1.777,0,0,1,.46,18.235a5.629,5.629,0,0,1-.46-.9M2.133,14.79h21.1V2.125H2.133Zm10.524,1.1A1,1,0,0,0,11.6,16.935a1.079,1.079,0,0,0,1.047,1.048,1.127,1.127,0,0,0,1.082-1.1,1.047,1.047,0,0,0-1.077-.992" transform="translate(0 0)" fill="#011aae"/>
  </g>
</svg>
