<svg xmlns="http://www.w3.org/2000/svg" width="10.611" height="10.63" viewBox="0 0 10.611 10.63">
  <path id="Path_1058" data-name="Path 1058" d="M-1309.437-133.409c-.259-.056-.522-.1-.776-.17a6.448,6.448,0,0,1-1.486-.654,13.887,13.887,0,0,1-3.489-2.931,11.393,11.393,0,0,1-1.673-2.452,5.353,5.353,0,0,1-.56-1.738,1.846,1.846,0,0,1,.156-1.123,1.4,1.4,0,0,1,.225-.308c.308-.318.628-.625.938-.942a1.057,1.057,0,0,1,1.5,0c.483.471.959.95,1.432,1.431a.993.993,0,0,1,.006,1.445,1.011,1.011,0,0,1-.315.193,1.081,1.081,0,0,0-.644.579.885.885,0,0,0-.041.6,3.608,3.608,0,0,0,.876,1.486,4.724,4.724,0,0,0,1.427,1.106,1.356,1.356,0,0,0,.774.187.956.956,0,0,0,.821-.6,1.114,1.114,0,0,1,.417-.564.993.993,0,0,1,1.249.139q.747.728,1.476,1.475a1.052,1.052,0,0,1-.02,1.471c-.318.323-.641.641-.961.962a1.376,1.376,0,0,1-.819.385.69.69,0,0,0-.078.02Z" transform="translate(1317.444 144.039)" fill="#fff"/>
</svg>
