<svg xmlns="http://www.w3.org/2000/svg" width="20.356" height="20.392" viewBox="0 0 20.356 20.392">
  <g id="Group_448" data-name="Group 448" transform="translate(1317.444 144.039)">
    <path id="Path_1058" data-name="Path 1058" d="M-1302.085-123.647c-.5-.107-1-.19-1.49-.327a12.369,12.369,0,0,1-2.85-1.255,26.639,26.639,0,0,1-6.692-5.622,21.855,21.855,0,0,1-3.21-4.7,10.272,10.272,0,0,1-1.074-3.333,3.541,3.541,0,0,1,.3-2.153,2.689,2.689,0,0,1,.432-.591c.592-.61,1.2-1.2,1.8-1.807a2.028,2.028,0,0,1,2.881,0c.927.9,1.839,1.822,2.748,2.745a1.9,1.9,0,0,1,.012,2.772,1.937,1.937,0,0,1-.6.37,2.074,2.074,0,0,0-1.234,1.111,1.7,1.7,0,0,0-.078,1.146,6.918,6.918,0,0,0,1.68,2.852,9.063,9.063,0,0,0,2.736,2.122,2.6,2.6,0,0,0,1.485.358,1.834,1.834,0,0,0,1.576-1.144,2.136,2.136,0,0,1,.8-1.083,1.906,1.906,0,0,1,2.4.267q1.434,1.4,2.831,2.83a2.018,2.018,0,0,1-.039,2.821c-.609.62-1.23,1.23-1.843,1.846a2.641,2.641,0,0,1-1.572.739,1.336,1.336,0,0,0-.15.038Z" transform="translate(0)" fill="#001aae"/>
  </g>
</svg>
