<svg id="Group_595" data-name="Group 595" xmlns="http://www.w3.org/2000/svg" xmlns:xlink="http://www.w3.org/1999/xlink" width="155.32" height="155.323" viewBox="0 0 155.32 155.323">
  <defs>
    <clipPath id="clip-path">
      <rect id="Rectangle_1920" data-name="Rectangle 1920" width="155.32" height="155.323" fill="#021aae"/>
    </clipPath>
  </defs>
  <g id="Group_594" data-name="Group 594" clip-path="url(#clip-path)">
    <path id="Path_1165" data-name="Path 1165" d="M189.553,187.966c-1.228,1.423-2.826,1.544-4.593,1.543q-60.575-.051-121.149-.027c-3.12,0-3.7-.586-3.7-3.759q0-29.946,0-59.892c0-2.969.685-3.659,3.624-3.66,7.127,0,14.253-.039,21.379.046a4.619,4.619,0,0,1,2.761,1.068,2.851,2.851,0,0,1,.434,2.248c-.3,1.816-1.041,3.575-1.209,5.394A5.909,5.909,0,0,0,90.745,137a6.3,6.3,0,0,0,6.694-.541c2.664-1.8,3.57-4.743,2.512-8.2-.231-.757-.506-1.5-.76-2.252-.763-2.256.337-3.814,2.755-3.823,5.509-.019,11.018-.006,16.527-.006h3.767v-1.55q0-9.249,0-18.5c0-2.673,1.377-3.623,3.994-2.8a20.349,20.349,0,0,1,2.24.68c4.19,1.877,8.8-1.6,9.184-5.616.333-3.486-2.379-7.282-6.075-7.081a29.238,29.238,0,0,0-5.628.975c-2.371.609-3.712-.265-3.715-2.683q-.012-11.221,0-22.441c0-2.235.859-3.106,3.1-3.107q30.477-.014,60.954-.017a3.385,3.385,0,0,1,3.251,2.058Zm-62.1-105.875c0,.078.009.155.014.233l.237-.2c2.108.038,4.292-.269,6.309.177,6.4,1.412,9.654,7.965,8.63,13.851-1.112,6.392-9.077,11.208-14.955,9.057l-.236.267v16.6H144.4c-1.434-5.264.069-9.678,4.132-12.887,4.36-3.443,9.529-3.186,14.112-.293a10.466,10.466,0,0,1,4.432,5.83,11.92,11.92,0,0,1,.114,7.382h16.907l.246-.268c.016-.251.045-.5.045-.754q0-27.284,0-54.568c0-.39-.037-.78-.057-1.193H127.471c-.025.3-.057.5-.056.7q.015,8.032.035,16.065m-5.536,102.177.269-.245q.03-10.071.071-20.143a4.149,4.149,0,0,1,.295-1.55c.509-1.212,1.587-1.408,3.651-.821s4.065,1.3,6.212.957c3.585-.577,6.045-4.759,4.931-8.69a6.761,6.761,0,0,0-7.893-4.462c-1.238.274-2.446.689-3.661,1.063-2.269.7-3.539-.208-3.544-2.584q-.017-9.392,0-18.785V127.38H105.547l-.266.236a3.954,3.954,0,0,0-.018,1.055,10.5,10.5,0,0,1-1.217,8.1c-2.444,4.21-6.211,6.059-11.085,6.039-5.9-.024-11.145-5.837-11.086-11.112.016-1.417,0-2.835,0-4.273H65.407v56.89H67.18q20.015,0,40.029,0c4.9,0,9.8-.029,14.7-.045m62.179-.007.239-.237c.018-.2.052-.4.052-.6q0-27.525,0-55.05a8.5,8.5,0,0,0-.127-1.031c-6.815,0-13.536.012-20.255-.006-2.544-.007-3.461-1.369-2.684-3.811a23.989,23.989,0,0,0,1.216-4.346,6.594,6.594,0,0,0-6.6-7.095c-4.388.241-6.861,2.451-6.676,6.845a18.658,18.658,0,0,0,1.115,4.518c.706,2.3-.4,3.887-2.832,3.892-5.358.012-10.717,0-16.075,0h-3.9a2.909,2.909,0,0,0-.139.553q.009,8.188.03,16.377c0,.078.009.155.014.233l.237-.2a4.8,4.8,0,0,0,.907-.033,11.86,11.86,0,0,1,10.33,20.4,12.564,12.564,0,0,1-11.431,2.654v16.988h1.742q25.076,0,50.152,0c1.564,0,3.128-.034,4.692-.052" transform="translate(-34.232 -34.187)" fill="#021aae"/>
    <path id="Path_1166" data-name="Path 1166" d="M65.539,0a4,4,0,0,1,1.82,3.759c-.061,5.608-.024,11.217-.023,16.826v1.585c6.239-1.17,11.256.639,14.115,6.245a11.148,11.148,0,0,1-1.2,12.428c-3.22,4.1-7.623,5.459-12.918,4.3v1.538q0,8.565,0,17.129c0,2.488-1.026,3.5-3.527,3.5q-9.391,0-18.805,0c1.448,5.806-.567,10.754-5.123,13.612a11.34,11.34,0,0,1-13.715-.691,11.982,11.982,0,0,1-3.982-12.92h-1.5q-8.868,0-17.736,0c-2.112,0-2.914-.773-2.915-2.82Q.019,33.64,0,2.792A2.779,2.779,0,0,1,1.844,0ZM5.245,5.458c-.018.3-.052.6-.052.9q0,27.286,0,54.573c0,.383.064.765.1,1.205,6.767,0,13.432-.007,20.1,0,2.045,0,2.92.893,2.817,2.922a10.052,10.052,0,0,1-.464,1.992c-.337,1.273-1.066,2.572-.965,3.806.381,4.672,4.115,7.83,8.8,6.429,2.859-.854,5.361-4.613,4.73-7.053-.367-1.418-.768-2.828-1.193-4.23-.77-2.537.156-3.857,2.791-3.866,4.8-.015,9.6,0,14.4,0h5.851c0-4.23,0-8.31,0-12.389,0-2.83-.038-5.661.026-8.489a2.237,2.237,0,0,1,3.139-2.211c1.158.35,2.3.748,3.472,1.054a6.671,6.671,0,0,0,5.386-.686A6.41,6.41,0,0,0,77.4,33.027a6.819,6.819,0,0,0-4.591-5.769c-2.369-.667-4.432.078-6.576.885-2.722,1.025-4.064.017-4.069-2.922q-.015-8.793,0-17.585V5.166h-1.81q-25.012,0-50.025,0c-1.615,0-3.231.034-4.847.052l-.239.237" transform="translate(0 0.001)" fill="#021aae"/>
    <path id="Path_1167" data-name="Path 1167" d="M216.515,111.247a.277.277,0,0,1,.251.032l-.237.2c0-.078-.009-.155-.014-.233" transform="translate(-123.298 -63.342)" fill="#021aae"/>
    <path id="Path_1168" data-name="Path 1168" d="M216.751,164.963l-.236.267.236-.267" transform="translate(-123.298 -93.941)" fill="#021aae"/>
    <path id="Path_1169" data-name="Path 1169" d="M348.079,203.872l.246-.267-.246.267" transform="translate(-198.219 -115.946)" fill="#021aae"/>
    <path id="Path_1170" data-name="Path 1170" d="M165.291,216.459l-.266.236.266-.236" transform="translate(-93.976 -123.266)" fill="#021aae"/>
    <path id="Path_1171" data-name="Path 1171" d="M216.514,255.671a.277.277,0,0,1,.251.032l-.237.2c0-.078-.009-.155-.014-.233" transform="translate(-123.298 -145.587)" fill="#021aae"/>
    <path id="Path_1172" data-name="Path 1172" d="M203.656,348.271l.269-.245-.269.245" transform="translate(-115.975 -198.189)" fill="#021aae"/>
    <path id="Path_1173" data-name="Path 1173" d="M348.08,348.265l.239-.237-.239.237" transform="translate(-198.22 -198.19)" fill="#021aae"/>
    <path id="Path_1174" data-name="Path 1174" d="M12.423,12.127l-.239.237.239-.237" transform="translate(-6.938 -6.906)" fill="#021aae"/>
  </g>
</svg>
