<svg id="Group_575" data-name="Group 575" xmlns="http://www.w3.org/2000/svg" xmlns:xlink="http://www.w3.org/1999/xlink" width="120.812" height="120.832" viewBox="0 0 120.812 120.832">
  <defs>
    <clipPath id="clip-path">
      <rect id="Rectangle_1896" data-name="Rectangle 1896" width="120.812" height="120.832" fill="#021aae"/>
    </clipPath>
  </defs>
  <g id="Group_574" data-name="Group 574" clip-path="url(#clip-path)">
    <path id="Path_1158" data-name="Path 1158" d="M134.546,2.331A4.024,4.024,0,0,0,130.452,0a77.215,77.215,0,0,0-19.059,2.5A95.741,95.741,0,0,0,65.351,29.642a2.81,2.81,0,0,1-2.227,1.064,48.879,48.879,0,0,0-8.916,1.012A64.156,64.156,0,0,0,21.164,49.128a3.27,3.27,0,0,0-.928,3.557,3.231,3.231,0,0,0,2.817,2.194q2.726.389,5.454.774,3.145.445,6.29.893c1.59.227,3.179.46,4.836.7l.893.13c-.415.466-.8.9-1.179,1.342-1.44,1.674-1.4,3.358.1,4.869C49.734,73.893,60.343,84.5,70.982,95.124c1.572,1.569,3.24,1.616,4.958.138.442-.38.878-.767,1.325-1.166l.4,2.747c.681,4.727,1.384,9.616,2.05,14.427A3.426,3.426,0,0,0,83.1,114.5a3.535,3.535,0,0,0,2.511-1.144c.752-.738,1.466-1.49,2.123-2.234a63.489,63.489,0,0,0,16.2-39.627,2.674,2.674,0,0,1,.9-2.084,91.782,91.782,0,0,0,17.621-22.282,89.673,89.673,0,0,0,11.515-33.246c.159-1.21.3-2.441.441-3.631q.1-.838.2-1.676l.005-6.087Zm-6.568,5.686c-.715,12.453-4.548,24.51-11.717,36.858C111.31,53.4,104.513,61.334,95.483,69.128c-6.075,5.243-12.124,10.714-17.975,16q-1.7,1.536-3.4,3.072a1.828,1.828,0,0,1-.442.329c-.02,0-.138-.047-.478-.389-8.54-8.6-17.57-17.626-26.838-26.839a1.731,1.731,0,0,1-.273-.32,1.842,1.842,0,0,1,.261-.341c8.228-9.138,15.127-16.824,22.052-24.631a88.738,88.738,0,0,1,45.8-27.559,63.873,63.873,0,0,1,12.373-1.806h0A9.878,9.878,0,0,1,128,6.633a9.4,9.4,0,0,1-.025,1.384M52.334,44.17q-3.071,3.443-6.138,6.89c-.394.443-.5.48-.764.439-3.811-.569-7.689-1.127-11.438-1.668l-3.255-.469a56.827,56.827,0,0,1,27.374-11.68q-2.887,3.246-5.78,6.487M96.943,76.52a57.436,57.436,0,0,1-11.681,27.361L85.09,102.7c-.345-2.362-.676-4.632-1.006-6.9q-.452-3.105-.895-6.214c-.087-.615-.083-.755.17-.978,3.575-3.155,7.19-6.382,10.687-9.5l2.9-2.587" transform="translate(-13.807 -0.001)" fill="#021aae"/>
    <path id="Path_1159" data-name="Path 1159" d="M19.542,256.545c-4.05,1.5-7.012,4.385-9.321,9.092-4.023,8.2-6.867,16.808-9.907,26.4-.727,2.294-.237,3.482,1.941,4.709l.178.1H4.365l.23-.238a1.063,1.063,0,0,1,.452-.163c.129-.03.258-.061.382-.1a196.03,196.03,0,0,0,23.83-8.788l.084-.039a24.194,24.194,0,0,0,7.415-4.631,16.132,16.132,0,0,0-17.217-26.339M32.16,278.234a10.75,10.75,0,0,1-3.293,2.252,146.343,146.343,0,0,1-19.011,7.57l-.073.025c-.493.17-.99.333-1.523.506,1.472-4.523,2.862-8.412,4.338-12.136l.05-.128a67.087,67.087,0,0,1,4.386-9.571,8.763,8.763,0,0,1,7.938-4.652,12.405,12.405,0,0,1,1.31.072,8.918,8.918,0,0,1,7.8,6.047,9.25,9.25,0,0,1-1.925,10.016" transform="translate(0 -176.012)" fill="#021aae"/>
    <path id="Path_1160" data-name="Path 1160" d="M246.9,69.771h-.062a13.254,13.254,0,0,0-13.195,13.185,13.257,13.257,0,0,0,13.092,13.226h.145a13.206,13.206,0,0,0,.02-26.412m-.057,19.858h-.007a6.653,6.653,0,0,1,0-13.306h.019a6.653,6.653,0,0,1-.016,13.306" transform="translate(-160.937 -48.06)" fill="#021aae"/>
  </g>
</svg>
