<svg id="Group_460" data-name="Group 460" xmlns="http://www.w3.org/2000/svg" xmlns:xlink="http://www.w3.org/1999/xlink" width="22.502" height="24.631" viewBox="0 0 22.502 24.631">
  <defs>
    <clipPath id="clip-path">
      <rect id="Rectangle_1767" data-name="Rectangle 1767" width="22.502" height="24.631" fill="#011aae"/>
    </clipPath>
  </defs>
  <g id="Group_406" data-name="Group 406" clip-path="url(#clip-path)">
    <path id="Path_1120" data-name="Path 1120" d="M22.458,7.614c0,.883.035,1.768-.009,2.649a16.711,16.711,0,0,1-.388,2.943A15.854,15.854,0,0,1,20.9,16.549a14.471,14.471,0,0,1-1.949,3.058,13.94,13.94,0,0,1-1.064,1.2,16.854,16.854,0,0,1-1.87,1.592,26.431,26.431,0,0,1-2.61,1.568,4.169,4.169,0,0,1-2.3.65,4.949,4.949,0,0,1-1.337-.355,14.1,14.1,0,0,1-3.32-1.851,16.717,16.717,0,0,1-2.5-2.305,15.762,15.762,0,0,1-2.41-3.644,13.507,13.507,0,0,1-1.107-3.2C.291,12.589.206,11.9.106,11.222.059,10.9.02,10.575,0,10.25c-.012-.213.033-.429.033-.644,0-1.487.02-2.975,0-4.461A3.279,3.279,0,0,1,1.112,2.607a3.569,3.569,0,0,1,1.813-.861c.739-.151,1.473-.325,2.21-.487C6.071,1.053,7.008.851,7.943.644,8.587.5,9.233.364,9.871.2A4.79,4.79,0,0,1,11.637.025c.53.064,1.052.2,1.575.312q1.641.358,3.28.73c1.051.238,2.1.507,3.152.718a3.4,3.4,0,0,1,2.2,1.378A2.669,2.669,0,0,1,22.4,4.585c.046,1.009.069,2.019.1,3.029h-.044m-2.224-.185c0-.752,0-1.5,0-2.257a1.189,1.189,0,0,0-.981-1.223c-.534-.1-1.063-.225-1.593-.344-.885-.2-1.769-.4-2.655-.6-1.009-.224-2.017-.453-3.03-.659a3.1,3.1,0,0,0-1.066-.1c-.77.122-1.527.327-2.289.5-1.162.262-2.323.526-3.485.784-.588.13-1.179.246-1.767.373a1.207,1.207,0,0,0-1.1,1.328c.026,1.434.022,2.87,0,4.3a13.377,13.377,0,0,0,.2,2.492,13.1,13.1,0,0,0,1.061,3.381,13.459,13.459,0,0,0,3.638,4.714,13.993,13.993,0,0,0,3.082,1.933c.34.155.679.41,1.079.314a5.615,5.615,0,0,0,.97-.361,12.615,12.615,0,0,0,3.4-2.224,17.9,17.9,0,0,0,1.691-1.838,12.484,12.484,0,0,0,2.06-3.758,14.6,14.6,0,0,0,.78-4.843c.005-.639,0-1.277,0-1.916" transform="translate(0 -0.001)" fill="#011aae"/>
    <path id="Path_1121" data-name="Path 1121" d="M99.127,117.939q1.277-1.247,2.549-2.489c.675-.658,1.353-1.313,2.028-1.971a1.15,1.15,0,0,1,1.872.413,1.1,1.1,0,0,1-.249,1.17q-1.843,1.809-3.684,3.62c-.573.562-1.154,1.116-1.729,1.676a1.212,1.212,0,0,1-1.511.017c-.886-.868-1.778-1.73-2.658-2.6a1.09,1.09,0,0,1-.234-1.17,1.1,1.1,0,0,1,1.057-.7,1.167,1.167,0,0,1,.8.341c.578.569,1.166,1.127,1.759,1.7" transform="translate(-88.737 -105.225)" fill="#011aae"/>
  </g>
</svg>
