<svg xmlns="http://www.w3.org/2000/svg" xmlns:xlink="http://www.w3.org/1999/xlink" width="140.552" height="140.44" viewBox="0 0 140.552 140.44">
  <defs>
    <clipPath id="clip-path">
      <rect id="Rectangle_1915" data-name="Rectangle 1915" width="140.552" height="140.44" fill="#fff"/>
    </clipPath>
  </defs>
  <g id="Group_588" data-name="Group 588" transform="translate(0 -0.001)">
    <g id="Group_587" data-name="Group 587" transform="translate(0 0.001)" clip-path="url(#clip-path)">
      <path id="Path_1161" data-name="Path 1161" d="M66.766,0h8.777c.132.089.256.236.4.258,2.459.379,4.923.73,7.381,1.113a62.1,62.1,0,0,1,16.931,5.4,69.564,69.564,0,0,1,24.753,19.51,68.174,68.174,0,0,1,11.3,20.105,64.066,64.066,0,0,1,3.441,14.266c.156,1.374.53,2.723.8,4.084V75.706c-.084.091-.228.172-.244.273-.384,2.461-.735,4.928-1.131,7.388a62.768,62.768,0,0,1-4.482,14.79,70.425,70.425,0,0,1-9.08,15.2,67.864,67.864,0,0,1-14.26,13.791,64.764,64.764,0,0,1-24.278,11.177,88.378,88.378,0,0,1-12.906,2.02,71.14,71.14,0,0,1-12.61-.527,72.867,72.867,0,0,1-11.555-2.334,68.758,68.758,0,0,1-27.367-15.562,67.435,67.435,0,0,1-9.921-11.441A71.8,71.8,0,0,1,2.587,89.09,59.889,59.889,0,0,1,.181,75.063C-.012,70.5-.26,65.887.674,61.346c.792-3.851,1.385-7.759,2.453-11.533A68.33,68.33,0,0,1,18.605,22.555,69.828,69.828,0,0,1,45.314,4.568,66.459,66.459,0,0,1,60.079.809c1.508-.189,3-.535,4.493-.809h2.195ZM11,71.264a57.436,57.436,0,0,0,17.927,41.295c11.865,11.584,26.149,17.336,42.759,16.884,17.148-.467,31.5-7.279,42.893-20.013,11.191-12.5,15.932-27.387,14.669-44.019A56.9,56.9,0,0,0,109.577,26C96.943,14.781,82,10.025,65.236,11.283a56.655,56.655,0,0,0-38.157,18.44C16.442,41.073,11.125,54.626,11,71.264" transform="translate(0 0)" fill="#fff"/>
      <path id="Path_1162" data-name="Path 1162" d="M240.762,0h0Z" transform="translate(-173.996 -0.001)" fill="#fff"/>
      <path id="Path_1163" data-name="Path 1163" d="M269.706,0h0Z" transform="translate(-194.985 -0.001)" fill="#fff"/>
      <path id="Path_1164" data-name="Path 1164" d="M142.4,188.28a5.133,5.133,0,0,1,4.068,1.734c4.137,4.134,8.294,8.248,12.388,12.424.813.829,1.26.79,2.058-.012,10.6-10.654,21.265-21.251,31.856-31.918a5.574,5.574,0,0,1,8.981,1.785,5.642,5.642,0,0,1-.988,5.66q-18.6,18.519-37.138,37.1a5.26,5.26,0,0,1-7.448.029c-5.92-5.969-11.89-11.887-17.809-17.856a5.359,5.359,0,0,1,2.169-8.715,10.4,10.4,0,0,1,1.863-.233" transform="translate(-99.29 -122.512)" fill="#fff"/>
    </g>
  </g>
</svg>
