<svg xmlns="http://www.w3.org/2000/svg" width="22.219" height="16.251" viewBox="0 0 22.219 16.251">
  <path id="Path_1164" data-name="Path 1164" d="M138.788,175.534a1.75,1.75,0,0,1,1.387.591c1.41,1.409,2.827,2.811,4.223,4.235.277.283.43.269.7,0,3.615-3.632,7.249-7.244,10.859-10.88a1.9,1.9,0,0,1,3.061.609,1.923,1.923,0,0,1-.337,1.929q-6.341,6.312-12.659,12.647a1.793,1.793,0,0,1-2.539.01c-2.018-2.035-4.053-4.052-6.071-6.087a1.827,1.827,0,0,1,.739-2.971,3.544,3.544,0,0,1,.635-.08" transform="translate(-136.921 -168.942)" fill="#011aae"/>
</svg>
