<svg id="Group_476" data-name="Group 476" xmlns="http://www.w3.org/2000/svg" xmlns:xlink="http://www.w3.org/1999/xlink" width="69.185" height="77.964" viewBox="0 0 69.185 77.964">
  <defs>
    <clipPath id="clip-path">
      <rect id="Rectangle_1818" data-name="Rectangle 1818" width="69.185" height="77.964" fill="#011aae"/>
    </clipPath>
  </defs>
  <g id="Group_475" data-name="Group 475" clip-path="url(#clip-path)">
    <path id="Path_1139" data-name="Path 1139" d="M11.449,21.682,6.8,16.516c-.623.535-1.257,1.023-1.823,1.58A3.262,3.262,0,0,1,2.853,19,2.344,2.344,0,0,1,.4,17.505a2.26,2.26,0,0,1,.385-3c1.466-1.526,3.136-2.853,4.709-4.277C6.452,9.356,7.352,8.416,8.354,7.6a5.784,5.784,0,0,1,2.325-1.432,2.587,2.587,0,0,1,3.039,1.643,3,3,0,0,1-1.137,3.537c-.557.45-1.094.923-1.662,1.4l4.67,5.213A33.381,33.381,0,0,1,33,11.3V5.575c-.962,0-1.91,0-2.858,0A2.878,2.878,0,0,1,27.465,3.1,2.8,2.8,0,0,1,29.982.028c3.769-.03,7.538-.042,11.306,0a2.715,2.715,0,0,1,2.563,1.6,2.381,2.381,0,0,1-.393,2.874,4.1,4.1,0,0,1-2.005,1.028,14.936,14.936,0,0,1-2.8.042v5.717A33.358,33.358,0,0,1,63.8,26.4a31.774,31.774,0,0,1,5.388,18.242A32.449,32.449,0,0,1,61.9,65.313,32.792,32.792,0,0,1,45.383,76.518,33.389,33.389,0,0,1,11.449,21.682M35.6,72.381a27.649,27.649,0,0,0,19.681-8.076,26.835,26.835,0,0,0,8.32-19.6,26.667,26.667,0,0,0-6.991-18.591,27.308,27.308,0,0,0-21.545-9.362,26.3,26.3,0,0,0-18.213,7.4A27.394,27.394,0,0,0,7.995,45.981c.55,13.8,12.361,26.422,27.606,26.4" transform="translate(0 -0.001)" fill="#011aae"/>
    <path id="Path_1140" data-name="Path 1140" d="M142.21,140.142c0-1.884-.006-3.768,0-5.651a2.733,2.733,0,0,1,5.376-.559,7.342,7.342,0,0,1,.176,1.687c.018,2.463.119,4.934-.038,7.387a2.786,2.786,0,0,0,1.349,2.6c1.921,1.5,3.828,3.021,5.739,4.535s3.808,3.047,5.736,4.54a2.932,2.932,0,0,1,.621,3.795,2.7,2.7,0,0,1-3.5.935c-1.293-.856-2.488-1.864-3.711-2.824-1.916-1.5-3.83-3.01-5.726-4.539q-2.589-2.088-5.135-4.23a2.512,2.512,0,0,1-.907-2.111c.044-1.854.013-3.709.013-5.564Z" transform="translate(-109.16 -101.26)" fill="#011aae"/>
  </g>
</svg>
