<svg id="Group_571" data-name="Group 571" xmlns="http://www.w3.org/2000/svg" xmlns:xlink="http://www.w3.org/1999/xlink" width="127.03" height="127.133" viewBox="0 0 127.03 127.133">
  <defs>
    <clipPath id="clip-path">
      <rect id="Rectangle_1894" data-name="Rectangle 1894" width="127.03" height="127.133" fill="#fff"/>
    </clipPath>
  </defs>
  <g id="Group_570" data-name="Group 570" clip-path="url(#clip-path)">
    <path id="Path_1151" data-name="Path 1151" d="M0,68.537V58.6a4.736,4.736,0,0,0,.246-.743c.489-3.015.858-6.055,1.474-9.044A55.756,55.756,0,0,1,5.655,37.3,53.987,53.987,0,0,1,12.576,25.63a124.148,124.148,0,0,1,8.512-9.285,38.663,38.663,0,0,1,4.95-4.148A62.588,62.588,0,0,1,54.281.736C55.729.541,57.164.248,58.6,0h9.436c.124.077.241.206.373.224,2.517.35,5.066.546,7.55,1.055A64.229,64.229,0,0,1,91.685,6.632,66.277,66.277,0,0,1,106.591,16.85a60.4,60.4,0,0,1,9.576,11.135,57.913,57.913,0,0,1,8.392,18.041,107.326,107.326,0,0,1,2.281,12.2,36.707,36.707,0,0,1,.026,7.188,90.513,90.513,0,0,1-1.029,10.546,58.355,58.355,0,0,1-5.561,16.177,68.1,68.1,0,0,1-9.2,13.495,61.213,61.213,0,0,1-11.894,10.49,61.442,61.442,0,0,1-17.711,8.414,62.769,62.769,0,0,1-15.591,2.571c-2.666.075-5.345-.075-8.01-.251a37.424,37.424,0,0,1-6.5-.772c-3.625-.895-7.217-1.978-10.746-3.2a52.6,52.6,0,0,1-12.373-6.4A56.279,56.279,0,0,1,16.506,106.25c-1.459-1.747-2.946-3.476-4.32-5.289A58.4,58.4,0,0,1,4.43,87,57.66,57.66,0,0,1,.506,71.7C.4,70.642.172,69.592,0,68.537m66.664,47.02c14.748-1.222,26.938-7.309,36.43-18.44A50.261,50.261,0,0,0,115.2,58.2a49.947,49.947,0,0,0-15.152-31.484,50.531,50.531,0,0,0-39.285-15A49.8,49.8,0,0,0,24.226,29.6C14.7,40.663,10.37,53.612,11.7,68.218a50.523,50.523,0,0,0,18,34.789,50.484,50.484,0,0,0,36.964,12.549" transform="translate(-0.001)" fill="#fff"/>
    <path id="Path_1152" data-name="Path 1152" d="M107.483,68.152q-.014,15.636-.028,31.272a6.045,6.045,0,0,1-3.055,5.618,5.548,5.548,0,0,1-8.409-4.319q-.057-15.326-.058-30.652c0-.695,0-1.389,0-2.42-.5.459-.815.727-1.106,1.018-3.777,3.77-7.526,7.567-11.336,11.3A5.31,5.31,0,0,1,77.2,81.209a5.866,5.866,0,0,1-3.352-5.214,5.644,5.644,0,0,1,1.721-4.243c7.239-7.211,14.536-14.366,21.633-21.715a6.493,6.493,0,0,1,8.913.014c7.115,7.159,14.277,14.272,21.394,21.429a5.886,5.886,0,0,1-3.67,10.255,5.006,5.006,0,0,1-4.03-1.58c-3.761-3.728-7.493-7.483-11.241-11.223-.287-.287-.608-.541-.913-.81l-.179-.16,0,.191" transform="translate(-38.122 -24.918)" fill="#fff"/>
    <path id="Path_1153" data-name="Path 1153" d="M112.369,202.668c-3.8,0-7.608.057-11.409-.021a5.379,5.379,0,0,1-5.023-3.379,5.492,5.492,0,0,1,.514-5.707,5.968,5.968,0,0,1,5.329-2.476c7.276-.033,14.552-.057,21.827.007,3.225.028,5.417,1.4,6.135,4.079.887,3.311-.7,6.645-4.423,7.245a15.14,15.14,0,0,1-2.284.23c-3.555.024-7.11.011-10.666.011v.01" transform="translate(-49.23 -98.623)" fill="#fff"/>
    <path id="Path_1154" data-name="Path 1154" d="M143.365,89.162l0-.191.179.16-.08.063-.1-.032" transform="translate(-74.005 -45.928)" fill="#fff"/>
  </g>
</svg>
