<svg id="Group_467" data-name="Group 467" xmlns="http://www.w3.org/2000/svg" xmlns:xlink="http://www.w3.org/1999/xlink" width="26.819" height="20.785" viewBox="0 0 26.819 20.785">
  <defs>
    <clipPath id="clip-path">
      <rect id="Rectangle_1773" data-name="Rectangle 1773" width="26.819" height="20.785" fill="#011aae"/>
    </clipPath>
  </defs>
  <g id="Group_414" data-name="Group 414" clip-path="url(#clip-path)">
    <path id="Path_1123" data-name="Path 1123" d="M25.441,7.653a1.275,1.275,0,0,1-.994-.476A16.451,16.451,0,0,0,22.042,5.23a15.267,15.267,0,0,0-3.4-1.685,12.246,12.246,0,0,0-2.633-.654c-.58-.068-1.161-.128-1.743-.171A11.209,11.209,0,0,0,12.8,2.672,16.035,16.035,0,0,0,10.82,2.9a21.766,21.766,0,0,0-2.374.562,13.65,13.65,0,0,0-3.51,1.667A16.757,16.757,0,0,0,2.351,7.194,1.311,1.311,0,0,1,.6,7.413,1.3,1.3,0,0,1,.415,5.369,22.574,22.574,0,0,1,2.808,3.377,22.8,22.8,0,0,1,5.441,1.8,15.659,15.659,0,0,1,9.169.47,16.2,16.2,0,0,1,11.4.124a19.888,19.888,0,0,1,2.747-.11A28.752,28.752,0,0,1,17.09.39a15.258,15.258,0,0,1,3.686,1.14,16.83,16.83,0,0,1,3.847,2.279c.612.487,1.2,1.012,1.769,1.544a1.28,1.28,0,0,1,.272,1.573,1.312,1.312,0,0,1-1.223.727" transform="translate(0 0)" fill="#011aae"/>
    <path id="Path_1124" data-name="Path 1124" d="M74.983,93.97c.327-.02.653-.058.98-.056a13.4,13.4,0,0,1,4.834.843,12.969,12.969,0,0,1,4.171,2.556c.294.272.648.5.747.91a1.232,1.232,0,0,1-.524,1.554,1.181,1.181,0,0,1-1.656-.163,10.546,10.546,0,0,0-2.971-2.074,9.057,9.057,0,0,0-3.01-.853,13.885,13.885,0,0,0-1.958-.1A10.178,10.178,0,0,0,70.729,98.1a12.376,12.376,0,0,0-1.9,1.5,1.3,1.3,0,0,1-2.214-.549,1.233,1.233,0,0,1,.316-1.315A13,13,0,0,1,73.394,94.2c.523-.109,1.054-.182,1.582-.272l.007.041" transform="translate(-62.766 -88.587)" fill="#011aae"/>
    <path id="Path_1125" data-name="Path 1125" d="M138.582,188.476a7.354,7.354,0,0,1,5.611,2.294,1.234,1.234,0,0,1,.22,1.369,1.282,1.282,0,0,1-1.134.8,1.164,1.164,0,0,1-1.013-.355,4.839,4.839,0,0,0-2.86-1.447,4.9,4.9,0,0,0-3.912,1.059,7.072,7.072,0,0,1-.79.608,1.357,1.357,0,0,1-1.554-.281,1.238,1.238,0,0,1-.047-1.714,6.457,6.457,0,0,1,2.316-1.679,9.046,9.046,0,0,1,2.125-.644,5.836,5.836,0,0,1,1.038-.01" transform="translate(-125.25 -177.766)" fill="#011aae"/>
    <path id="Path_1126" data-name="Path 1126" d="M196.486,286.649a2.4,2.4,0,0,1-2.39-2.432,2.341,2.341,0,0,1,2.3-2.364,2.367,2.367,0,0,1,2.5,2.434,2.435,2.435,0,0,1-2.412,2.363" transform="translate(-183.086 -265.864)" fill="#011aae"/>
  </g>
</svg>
